<?xml version="1.0" encoding="iso-8859-1"?>
<!-- Generator: Adobe Illustrator 19.0.0, SVG Export Plug-In . SVG Version: 6.00 Build 0)  -->
<svg version="1.1" id="Layer_1" xmlns="http://www.w3.org/2000/svg" xmlns:xlink="http://www.w3.org/1999/xlink" x="0px" y="0px"
	 viewBox="0 0 399.027 399.027" style="enable-background:new 0 0 399.027 399.027;" xml:space="preserve">
<g>
	<g>
		<path d="M380.703,107.713c0-8.584-3.343-16.655-9.412-22.725c-4.941-4.94-11.206-8.073-17.995-9.069l0.42-0.42
			c12.529-12.53,12.529-32.918,0-45.449c-11.679-11.68-30.183-12.468-42.791-2.374c-0.93-6.684-3.956-13.129-9.084-18.258
			c-6.066-6.065-14.134-9.41-22.724-9.418c-8.587,0-16.658,3.343-22.729,9.413l-91.095,91.095
			c-0.752-8.408-4.383-16.215-10.424-22.256c-10.139-10.138-26.634-10.138-36.771,0L58.409,137.94
			c-10.888,10.888-20.942,36.716-29.882,76.765c-6.517,29.192-10.11,55.785-10.146,56.05c-0.269,2.008,0.414,4.027,1.846,5.459
			l120.909,120.909c1.269,1.269,2.933,1.904,4.596,1.904c1.663,0,3.327-0.635,4.596-1.903l2.643-2.642
			c9.655-9.655,20.623-17.876,32.599-24.436c13.059-7.152,25.019-16.116,35.547-26.645l126.238-126.238
			c5.422-5.422,8.408-12.628,8.408-20.299c-0.008-7.837-3.109-15.155-8.733-20.606c-4.03-3.907-8.977-6.358-14.178-7.381
			l38.439-38.439C377.361,124.367,380.703,116.297,380.703,107.713z M362.098,121.245L254.025,229.318
			c-2.539,2.539-2.539,6.654,0,9.192c1.269,1.27,2.932,1.904,4.596,1.904c1.663,0,3.327-0.635,4.596-1.904l52.392-52.388
			c6.222-6.22,16.258-6.458,22.374-0.531c3.079,2.984,4.777,6.992,4.781,11.278c0,4.192-1.634,8.134-4.601,11.101L211.924,334.209
			c-9.655,9.655-20.623,17.876-32.599,24.435c-12.251,6.71-23.534,15.015-33.575,24.708L31.705,269.307
			c4.379-30.816,18.044-104.322,35.896-122.175l59.688-59.688c5.069-5.069,13.317-5.069,18.387,0
			c4.365,4.365,6.769,10.168,6.769,16.34s-2.403,11.974-6.767,16.339l-49.363,49.363c-2.539,2.539-2.539,6.654,0,9.192
			c1.269,1.269,2.933,1.904,4.596,1.904c1.663,0,3.327-0.635,4.596-1.904l49.361-49.361c0,0,0.001-0.001,0.001-0.002l110.71-110.71
			c3.615-3.615,8.423-5.606,13.531-5.606c5.115,0.005,9.923,1.998,13.536,5.612c7.447,7.447,7.458,19.553,0.041,27.017
			l-94.124,94.125c-2.539,2.539-2.539,6.654,0,9.192c1.588,1.587,3.792,2.182,5.842,1.784c1.229-0.238,2.403-0.833,3.354-1.785
			l109.699-109.7c7.462-7.462,19.604-7.461,27.064,0c7.462,7.461,7.462,19.602,0,27.064L227.186,183.644
			c-2.538,2.539-2.538,6.654,0,9.192c2.538,2.538,6.653,2.539,9.193,0l98.656-98.656c3.614-3.615,8.42-5.605,13.531-5.605
			c5.111,0,9.917,1.991,13.531,5.605c3.615,3.614,5.605,8.42,5.605,13.532C367.703,112.824,365.713,117.63,362.098,121.245z"/>
	</g>
</g>
<g>
</g>
<g>
</g>
<g>
</g>
<g>
</g>
<g>
</g>
<g>
</g>
<g>
</g>
<g>
</g>
<g>
</g>
<g>
</g>
<g>
</g>
<g>
</g>
<g>
</g>
<g>
</g>
<g>
</g>
</svg>
