<?xml version="1.0" encoding="iso-8859-1"?>
<!-- Generator: Adobe Illustrator 19.0.0, SVG Export Plug-In . SVG Version: 6.00 Build 0)  -->
<svg version="1.1" id="Layer_1" xmlns="http://www.w3.org/2000/svg" xmlns:xlink="http://www.w3.org/1999/xlink" x="0px" y="0px"
	 viewBox="0 0 512 512" style="enable-background:new 0 0 512 512;" xml:space="preserve">
<g transform="translate(1 1)">
	<g>
		<path d="M445.684,185.027c-5.973-8.533-14.507-14.507-24.747-16.213c-8.533-1.707-16.213-0.853-23.04,2.56
			c0-8.533-2.56-16.213-6.827-23.04c-5.973-8.533-14.507-14.507-24.747-16.213c-6.827-1.707-14.507-0.853-21.333,1.707l18.773-89.6
			c1.707-7.68,0.853-15.36-1.707-22.187C355.23,8.387,341.577-1,326.217-1c-26.453,0-34.987,20.48-38.4,36.693l-33.28,160.427
			L228.084,69.827c-5.973-26.453-17.067-36.693-38.4-36.693c-12.8,0-24.747,4.267-31.573,11.947
			c-4.267,5.12-8.533,13.653-6.827,27.307l29.013,162.133c-18.773-18.773-43.52-39.253-64-50.347
			c-17.067-9.387-42.667-3.413-53.76,12.8c-3.413,5.12-13.653,24.747,12.8,46.08c54.613,45.227,58.88,97.28,58.88,98.133
			c9.387,65.707,47.787,97.28,60.587,105.813v29.867c0,18.773,14.507,34.133,33.28,34.133h153.6
			c18.773,0,34.987-15.36,34.987-34.133v-30.72c25.6-34.987,25.6-39.253,25.6-105.813v-81.067l9.387-45.227
			C453.364,203.8,451.657,193.56,445.684,185.027z M415.817,302.787c-1.707,11.947-12.8,19.627-24.747,17.067
			c-5.973-1.707-10.24-4.267-13.653-9.387c-3.413-5.12-4.267-10.24-3.413-16.213l17.067-87.893
			c1.707-5.973,4.267-10.24,9.387-13.653c3.413-2.56,7.68-3.413,11.947-3.413c1.707,0,2.56,0,3.413,0.853
			c9.421,1.346,16.184,8.531,17.369,17.367c-0.007,1.285-0.108,2.603-0.302,3.967l-4.016,24.094L415.817,302.787z M337.31,169.667
			c1.707-5.973,4.267-10.24,9.387-13.653c3.413-2.56,7.68-3.413,11.947-3.413c1.707,0,2.56,0,4.267,0.853
			c7.443,1.063,13.228,5.77,15.914,12.056c0.718,2.928,0.771,5.971,0.299,9.277l-5.12,24.747c-0.189,1.133-0.159,2.22,0.033,3.241
			c-0.01,0.058-0.024,0.114-0.033,0.172l-17.067,87.893c0,0.001,0,0.002,0,0.003c-1.708,11.945-12.801,19.623-24.746,17.064
			c-5.973-1.707-10.24-4.267-13.653-9.387s-4.267-10.24-3.413-16.213L337.31,169.667z M404.369,434.2H391.07
			c-5.12,0-8.533,3.413-8.533,8.533s3.413,8.533,8.533,8.533h8.533v26.453c0,9.387-8.533,17.067-17.92,17.067h-153.6
			c-9.387,0-16.213-7.68-16.213-17.067v-26.453h17.067c5.12,0,8.533-3.413,8.533-8.533s-3.413-8.533-8.533-8.533h-23.854
			c-9.764-6.741-44.923-33.951-53.8-93.867c0-2.56-4.267-59.733-64.853-110.08c-7.68-6.827-15.36-15.36-10.24-22.187
			c5.973-8.533,22.187-12.8,31.573-7.68c27.307,14.507,63.147,47.787,79.36,69.12c0.048,0.064,0.101,0.121,0.15,0.184
			c3.938,13.564,12.271,36.204,26.303,51.016c1.707,1.707,3.413,2.56,5.973,2.56c1.707,0,4.267-0.853,6.827-1.707
			c3.413-3.413,3.413-8.533,0-11.947c-10.24-10.24-18.773-27.307-23.893-47.787c-0.079-0.394-0.205-0.769-0.353-1.133L168.35,70.68
			c-0.853-5.973,0.853-10.24,3.413-13.653c3.413-4.267,10.24-6.827,17.92-6.827c10.24,0,17.067,1.707,21.333,23.04l34.987,166.4
			c0.853,4.267,4.267,6.827,8.533,6.827s7.68-2.56,8.533-6.827l41.813-200.533c4.267-19.627,11.093-23.04,21.333-23.04
			c8.533,0,16.213,5.12,18.773,12.8c1.707,4.267,1.707,9.387,0.853,12.8l-23.893,117.76c-0.036,0.215-0.057,0.426-0.081,0.638
			c-0.715,1.985-1.269,4.047-1.626,6.189l-22.187,112.64c-1.707,10.24,0,20.48,5.973,29.013s14.507,14.507,24.747,16.213
			c2.56,0.853,5.12,0.853,7.68,0.853c9.035,0,17.634-3.04,24.38-8.458c0.624,1.138,1.313,2.252,2.073,3.338
			c5.973,8.533,14.507,14.507,24.747,16.213c2.56,0.853,5.12,0.853,7.68,0.853c11.858,0,22.965-5.608,29.867-14.84v18.253
			C425.204,402.29,425.202,405.06,404.369,434.2z"/>
	</g>
</g>
<g>
</g>
<g>
</g>
<g>
</g>
<g>
</g>
<g>
</g>
<g>
</g>
<g>
</g>
<g>
</g>
<g>
</g>
<g>
</g>
<g>
</g>
<g>
</g>
<g>
</g>
<g>
</g>
<g>
</g>
</svg>
